<?xml version="1.0" encoding="UTF-8"?>
<svg version="1.1" xmlns="http://www.w3.org/2000/svg" width="173" height="197">
<path d="M0 0 C0.99 0 1.98 0 3 0 C5.74426107 11.64042465 7.46383541 23.35456098 9.125 35.1875 C9.52047631 37.9873856 9.91739476 40.78704371 10.31759644 43.58625793 C10.5642736 45.31312765 10.80815266 47.04040003 11.04885864 48.76811218 C11.50315422 51.9600164 11.97806001 54.93418003 13 58 C15.29027742 59.20943815 15.29027742 59.20943815 18 60.125 C22.93273543 61.93273543 22.93273543 61.93273543 24 63 C24.04063832 64.66617115 24.042721 66.33388095 24 68 C20.48351039 67.3548886 17.15941962 66.44168976 13.75 65.375 C7.03572846 63.54054896 1.97320155 63.54144829 -4.3125 66.625 C-10.33701324 71.94898845 -12.67578765 78.86945051 -13.30078125 86.83203125 C-13.32756774 95.93051039 -13.08342954 104.00271764 -8.1875 111.9375 C-2.73845506 117.07517095 2.43354745 117.63803516 9.72265625 117.49609375 C14.75276096 116.73468338 18.32127612 114.4465714 22 111 C22.33 110.34 22.66 109.68 23 109 C24.98 109.99 24.98 109.99 27 111 C26.45550236 114.79472973 24.96207612 116.27031268 22.0625 118.6875 C21.35222656 119.28949219 20.64195313 119.89148438 19.91015625 120.51171875 C18 122 18 122 16 123 C14.07595432 129.33645211 13.51801136 136.17150447 12.78125 142.734375 C12.56912406 144.54298208 12.35688107 146.35157544 12.14453125 148.16015625 C11.81992038 150.96639013 11.49739441 153.77284329 11.17724609 156.57958984 C10.86319128 159.31934872 10.54137123 162.05811362 10.21875 164.796875 C10.12597778 165.63136169 10.03320557 166.46584839 9.93762207 167.32562256 C9.408727 171.78385934 8.61023438 175.7735603 7 180 C5.15844727 179.76513672 5.15844727 179.76513672 3 179 C-1.95247768 172.37600568 -3.60544844 163.76771776 -5.4375 155.875 C-5.73116455 154.66465088 -6.0248291 153.45430176 -6.32739258 152.20727539 C-7.52132226 147.28082905 -8.68675443 142.34816637 -9.83398438 137.41064453 C-10.36092807 135.1443401 -10.89332666 132.87929519 -11.43188477 130.61572266 C-11.92556059 128.53925355 -12.40582181 126.45953683 -12.87084961 124.37646484 C-13.09264893 123.44656738 -13.31444824 122.51666992 -13.54296875 121.55859375 C-13.72883545 120.74704834 -13.91470215 119.93550293 -14.10620117 119.09936523 C-15.28313046 116.33497984 -16.38627823 115.47810661 -19 114 C-22.1753612 113.03146671 -22.1753612 113.03146671 -25.75 112.3515625 C-27.09505438 112.06511497 -28.44010639 111.77865626 -29.78515625 111.4921875 C-31.87939123 111.059233 -33.97438696 110.63022049 -36.06982422 110.203125 C-55.45575836 106.21611069 -55.45575836 106.21611069 -62 102 C-63.3203125 99.33837891 -63.3203125 99.33837891 -64 97 C-59.9797452 92.41803296 -55.83552454 90.16380277 -50.3125 87.6875 C-49.07512085 87.11817749 -49.07512085 87.11817749 -47.81274414 86.53735352 C-45.21372971 85.34633399 -42.60744553 84.17242999 -40 83 C-38.27332146 82.21379646 -36.54675691 81.42734254 -34.8203125 80.640625 C-33.19326794 79.905011 -31.56568381 79.17058897 -29.9375 78.4375 C-29.17026611 78.09098389 -28.40303223 77.74446777 -27.61254883 77.38745117 C-22.2369645 75 -22.2369645 75 -20 75 C-19.85304687 74.45472656 -19.70609375 73.90945312 -19.5546875 73.34765625 C-18.27530004 69.04626738 -17.00392481 65.87664515 -14.08203125 62.453125 C-8.98160922 54.98564348 -8.87192645 45.43450021 -7.8125 36.6875 C-7.35003769 33.06503881 -6.8751049 29.44431882 -6.39453125 25.82421875 C-6.28078156 24.96005341 -6.16703186 24.09588806 -6.04983521 23.20553589 C-4.96843995 15.25156269 -3.8443609 7.14483504 0 0 Z " fill="#FFFFFF" transform="translate(79,8)"/>
<path d="M0 0 C26.72980501 0 26.72980501 0 32.99609375 4.40234375 C36.47794422 8.11065604 37.44123703 10.95515685 37.625 16.0625 C37.3005288 22.54381217 35.53927106 25.46072894 31 30 C31.48210937 30.38671875 31.96421875 30.7734375 32.4609375 31.171875 C33.09257812 31.69265625 33.72421875 32.2134375 34.375 32.75 C35.00148437 33.26046875 35.62796875 33.7709375 36.2734375 34.296875 C39.98498986 37.9580443 40.31534492 41.25659393 40.375 46.375 C40.27853626 51.75888253 39.89084148 55.00676796 36 59 C25.98742757 67.58220494 12.38787019 65 0 65 C0 43.55 0 22.1 0 0 Z M9 5 C9 12.92 9 20.84 9 29 C20.25683946 30.02899151 20.25683946 30.02899151 26 26 C28.73004414 23.11429544 29.45074685 21.07756526 29.5 17.125 C29.39804712 13.49225799 28.97398424 11.29042444 26.6875 8.4375 C20.92155671 3.20792353 18.04981883 5 9 5 Z M9 34 C9 42.25 9 50.5 9 59 C19.48024452 59.62661419 19.48024452 59.62661419 29 56 C32.4613456 52.19251984 32.45033624 48.3011796 32.2890625 43.375 C31.90833119 40.2468292 31.07499902 38.37142746 29 36 C25.23349306 33.35975249 21.15327853 33.77464291 16.75 33.875 C12.91375 33.936875 12.91375 33.936875 9 34 Z " fill="#FFFFFF" transform="translate(111,66)"/>
</svg>
