<?xml version="1.0" encoding="UTF-8"?>
<svg version="1.1" xmlns="http://www.w3.org/2000/svg" width="360" height="182">
<path d="M0 0 C0.99 0 1.98 0 3 0 C5.91832565 11.23385856 7.51672274 22.5841507 9.125 34.0625 C9.52071573 36.85877868 9.91803938 39.65481387 10.31759644 42.45054626 C10.56385801 44.17639679 10.80772823 45.90259074 11.04885864 47.62916565 C11.15922455 48.40775436 11.26959045 49.18634308 11.38330078 49.98852539 C11.47862091 50.66879288 11.57394104 51.34906036 11.67214966 52.04994202 C12.01582144 54.09410611 12.35014926 56.02892224 13 58 C15.27211676 59.32283857 15.27211676 59.32283857 18 60.1875 C22.95364238 61.95364238 22.95364238 61.95364238 24 63 C24.04080783 64.99958364 24.04254356 67.00045254 24 69 C23.03320312 68.62746094 22.06640625 68.25492187 21.0703125 67.87109375 C12.8072818 64.81394259 5.51725627 62.15656387 -3.0234375 65.8828125 C-9.02017124 69.50109489 -11.01537338 75.30765018 -12.75 81.8125 C-13.61964988 92.90053597 -13.75130672 103.69414479 -7 113 C-1.7352939 117.36858592 3.08432155 117.66270993 9.8359375 117.4609375 C14.4704874 116.78578085 17.44207292 114.93725676 21 112 C21.825 111.401875 22.65 110.80375 23.5 110.1875 C23.995 109.795625 24.49 109.40375 25 109 C25.66 109.66 26.32 110.32 27 111 C26.89337766 114.09204795 25.80923696 115.2172579 23.75 117.5625 C21 120 21 120 18.42578125 121.10546875 C15.37950768 123.4846035 15.17073626 125.41798325 14.69702148 129.15820312 C14.61137939 130.01349609 14.5257373 130.86878906 14.4375 131.75 C14.32801025 132.64654297 14.21852051 133.54308594 14.10571289 134.46679688 C13.85951579 136.49044582 13.62309931 138.51529977 13.39453125 140.54101562 C12.71429985 146.50482656 11.9577437 152.45889185 11.19973755 158.41320801 C10.94066395 160.47482241 10.69211647 162.53750006 10.44506836 164.60058594 C10.28659424 165.87708008 10.12812012 167.15357422 9.96484375 168.46875 C9.8268335 169.60763672 9.68882324 170.74652344 9.54663086 171.91992188 C9.02570368 174.85516855 8.21795593 177.28879022 7 180 C5.12744141 179.70727539 5.12744141 179.70727539 3 179 C-0.83267279 172.7664 -2.56223547 166.10398692 -4.375 159.0625 C-4.67100098 157.9381958 -4.96700195 156.8138916 -5.27197266 155.65551758 C-12.35731749 128.51392329 -12.35731749 128.51392329 -15 115 C-17.20746207 114.43390299 -19.41577061 113.87163893 -21.625 113.3125 C-22.6759082 113.04566406 -22.6759082 113.04566406 -23.74804688 112.7734375 C-28.04452821 111.69653207 -32.34940795 110.69402311 -36.6796875 109.76171875 C-37.64438965 109.55184326 -38.6090918 109.34196777 -39.60302734 109.12573242 C-41.49465905 108.7171489 -43.38817705 108.31717668 -45.28369141 107.92700195 C-51.76372364 106.51940084 -58.17684171 104.82315829 -63 100 C-63.38378906 97.55786133 -63.38378906 97.55786133 -63 95 C-56.74353391 89.18722312 -46.98647487 86.15536893 -39.25 82.8125 C-36.87968958 81.77853216 -34.50988013 80.74341492 -32.140625 79.70703125 C-30.58649902 79.03377808 -30.58649902 79.03377808 -29.00097656 78.34692383 C-27.51549316 77.68019653 -27.51549316 77.68019653 -26 77 C-24.93007813 76.52377197 -23.86015625 76.04754395 -22.7578125 75.55688477 C-19.95691437 73.9756766 -19.06185496 73.22373723 -17.734375 70.3828125 C-17.40179688 69.69316406 -17.06921875 69.00351563 -16.7265625 68.29296875 C-16.40429688 67.57753906 -16.08203125 66.86210938 -15.75 66.125 C-15.41226563 65.41730469 -15.07453125 64.70960937 -14.7265625 63.98046875 C-13.78868217 61.99762727 -12.87588642 60.01098388 -12 58 C-11.48687256 56.8847998 -11.48687256 56.8847998 -10.96337891 55.74707031 C-9.74382411 52.26951567 -9.29199139 48.80261331 -8.8515625 45.1640625 C-8.64860095 43.60805159 -8.44547019 42.05206274 -8.2421875 40.49609375 C-7.93403857 38.07707604 -7.6290688 35.65771769 -7.328125 33.23779297 C-4.21670167 8.43340333 -4.21670167 8.43340333 0 0 Z " fill="#FFFFFF" transform="translate(63,0)"/>
<path d="M0 0 C26.72727273 0 26.72727273 0 33.9375 5.0625 C37.57802836 10.24749494 38.36950863 15.53660917 37.4375 21.75 C35.75254444 25.55946474 33.82116299 27.95611361 31 31 C32.3921875 31.8353125 32.3921875 31.8353125 33.8125 32.6875 C38.36996935 35.99389933 39.98106935 38.83599853 40.875 44.3125 C41.37173865 50.53208179 39.59946283 54.94354779 35.8125 59.8125 C24.95025455 68.26091313 13.94514731 65 0 65 C0 43.55 0 22.1 0 0 Z M9 5 C9 12.92 9 20.84 9 29 C11.206875 29.0825 13.41375 29.165 15.6875 29.25 C16.92886719 29.29640625 18.17023438 29.3428125 19.44921875 29.390625 C23.5696687 28.93733018 25.10787892 27.89748679 28 25 C29.973856 21.052288 29.43532783 16.30352652 29 12 C27.06342273 8.20430856 25.73239712 7.30157528 21.8125 5.6875 C17.16947477 4.73380171 17.16947477 4.73380171 9 5 Z M9 34 C9 42.58 9 51.16 9 60 C21.06669832 60.43894238 21.06669832 60.43894238 30.4375 55 C32.83351883 50.39964384 32.87652315 46.07343485 32 41 C30.13427593 37.33264162 27.96138356 35.32046119 24 34 C21.42502932 33.92964561 18.88550071 33.9065066 16.3125 33.9375 C13.899375 33.958125 11.48625 33.97875 9 34 Z " fill="#FFFFFF" transform="translate(219,55)"/>
<path d="M0 0 C3.3 0 6.6 0 10 0 C14.74681192 9.79888506 19.01662185 19.74047875 23.06616211 29.84814453 C23.43362549 30.76192871 23.80108887 31.67571289 24.1796875 32.6171875 C24.50694824 33.43815918 24.83420898 34.25913086 25.17138672 35.10498047 C25.85068335 36.97221274 25.85068335 36.97221274 27 38 C32.28 25.46 37.56 12.92 43 0 C46.3 0 49.6 0 53 0 C53 16.5 53 33 53 50 C50.36 50 47.72 50 45 50 C44.67 38.12 44.34 26.24 44 14 C36.575 31.82 36.575 31.82 29 50 C26.69 50 24.38 50 22 50 C20.34354689 46.15988356 18.68959775 42.31870088 17.0378418 38.4765625 C16.47698558 37.17288983 15.91547652 35.86949781 15.35327148 34.56640625 C14.53973338 32.68044414 13.72864215 30.79344497 12.91796875 28.90625 C12.43094482 27.77509766 11.9439209 26.64394531 11.44213867 25.47851562 C9.8709056 21.6886174 8.4405522 17.84147254 7 14 C6.67 25.88 6.34 37.76 6 50 C4.02 50 2.04 50 0 50 C0 33.5 0 17 0 0 Z " fill="#FFFFFF" transform="translate(150,63)"/>
<path d="M0 0 C5.1014117 3.96259998 8.08036019 8.04555603 9.71484375 14.33203125 C10.8650914 24.14254592 10.99158886 34.22181585 4.71484375 42.33203125 C0.09271842 47.65255464 -5.30013949 49.09130409 -12.16015625 49.64453125 C-18.25229289 49.45526099 -23.50020793 47.845357 -28.16015625 43.89453125 C-28.86140625 43.04890625 -29.56265625 42.20328125 -30.28515625 41.33203125 C-30.84203125 40.71328125 -31.39890625 40.09453125 -31.97265625 39.45703125 C-36.62131781 31.93062682 -36.29995458 22.13940656 -34.8203125 13.671875 C-32.85850849 6.90423159 -29.15376617 2.1468661 -23.22265625 -1.60546875 C-15.92591506 -4.19986562 -6.69531175 -4.00586306 0 0 Z M-23.47265625 7.33203125 C-27.95039469 14.74346039 -28.03241202 24.02313869 -26.28515625 32.33203125 C-24.69960092 36.87829179 -22.78100357 41.14833398 -18.28515625 43.33203125 C-12.66083612 44.81770072 -9.33274437 44.1891566 -4.28515625 41.33203125 C0.87902626 36.44699374 1.78156034 30.26416297 2.02734375 23.45703125 C1.85876761 16.61916172 0.59159267 10.57497508 -3.84765625 5.26953125 C-10.73297972 -0.20341818 -17.46248166 1.83701448 -23.47265625 7.33203125 Z " fill="#FFFFFF" transform="translate(348.28515625,64.66796875)"/>
<path d="M0 0 C20 0 20 0 28 5 C30.82061323 10.64122645 30.76349591 15.7862016 30 22 C28.34631957 25.67621152 25.83865648 28.16134352 23 31 C23.33322266 31.50450684 23.66644531 32.00901367 24.00976562 32.52880859 C25.51124121 34.80779654 27.00568792 37.0913093 28.5 39.375 C29.02464844 40.1690625 29.54929687 40.963125 30.08984375 41.78125 C30.58613281 42.54179688 31.08242188 43.30234375 31.59375 44.0859375 C32.05458984 44.7876709 32.51542969 45.4894043 32.99023438 46.21240234 C34 48 34 48 34 50 C30.84533531 50.56783964 28.13535482 50.74528926 25 50 C22.33059441 47.38398252 20.72292753 44.29338359 19 41 C18.20703148 39.48958377 17.39577093 37.98856166 16.5625 36.5 C16.23378906 35.8503125 15.90507812 35.200625 15.56640625 34.53125 C13.51867969 32.22780841 13.51867969 32.22780841 7 32 C7 37.94 7 43.88 7 50 C4.69 50 2.38 50 0 50 C0 33.5 0 17 0 0 Z M7 5 C7 12.26 7 19.52 7 27 C14.53387496 27.3605634 14.53387496 27.3605634 20 24 C22.83096696 19.75354956 22.53277903 15.98585744 22 11 C20.30596911 7.21634468 20.30596911 7.21634468 17 5 C13.7 5 10.4 5 7 5 Z " fill="#FFFFFF" transform="translate(272,63)"/>
<path d="M0 0 C3.3 0 6.6 0 10 0 C12.2844769 6.63660286 14.56298488 13.27521285 16.8359375 19.91577148 C17.61033215 22.17545117 18.38636721 24.43456937 19.1640625 26.69311523 C20.28034269 29.93588071 21.39074614 33.18060662 22.5 36.42578125 C22.84998047 37.43836502 23.19996094 38.45094879 23.56054688 39.49421692 C23.88087891 40.43496567 24.20121094 41.37571442 24.53125 42.3449707 C24.81548828 43.17325882 25.09972656 44.00154694 25.39257812 44.85493469 C26 47 26 47 26 50 C23.36 50 20.72 50 18 50 C17.34865075 48.43979133 16.70417036 46.87671421 16.0625 45.3125 C15.52302734 44.00732422 15.52302734 44.00732422 14.97265625 42.67578125 C14 40 14 40 13 35 C6.73 35 0.46 35 -6 35 C-6.45375 36.546875 -6.9075 38.09375 -7.375 39.6875 C-8.4275512 43.20431799 -9.53845208 46.62719712 -11 50 C-12.98 50 -14.96 50 -17 50 C-14.46061291 39.32474237 -10.55511937 29.10773428 -6.8125 18.8125 C-6.1512999 16.98386594 -5.49048936 15.15509098 -4.83007812 13.32617188 C-3.22453998 8.88247687 -1.61373773 4.44072353 0 0 Z M3 7 C1.82847622 10.45670732 0.66360923 13.91562122 -0.5 17.375 C-1.00080078 18.85226563 -1.00080078 18.85226563 -1.51171875 20.359375 C-1.82753906 21.30039063 -2.14335938 22.24140625 -2.46875 23.2109375 C-2.76201172 24.08024902 -3.05527344 24.94956055 -3.35742188 25.84521484 C-4.09525788 27.94467299 -4.09525788 27.94467299 -4 30 C0.95 30 5.9 30 11 30 C8.95285106 22.22083402 6.61516053 14.6065329 4 7 C3.67 7 3.34 7 3 7 Z " fill="#FFFFFF" transform="translate(114,63)"/>
</svg>
